<mxfile host="Electron" agent="Mozilla/5.0 (Windows NT 10.0; Win64; x64) AppleWebKit/537.36 (KHTML, like Gecko) draw.io/24.7.8 Chrome/128.0.6613.36 Electron/32.0.1 Safari/537.36" version="24.7.8">
  <diagram id="C5RBs43oDa-KdzZeNtuy" name="Page-1">
    <mxGraphModel dx="1276" dy="614" grid="1" gridSize="10" guides="1" tooltips="1" connect="1" arrows="1" fold="1" page="1" pageScale="1" pageWidth="827" pageHeight="1169" math="0" shadow="0">
      <root>
        <mxCell id="WIyWlLk6GJQsqaUBKTNV-0" />
        <mxCell id="WIyWlLk6GJQsqaUBKTNV-1" parent="WIyWlLk6GJQsqaUBKTNV-0" />
        <mxCell id="zkfFHV4jXpPFQw0GAbJ--12" value="" style="endArrow=block;endSize=10;endFill=0;shadow=0;strokeWidth=1;rounded=0;curved=0;edgeStyle=elbowEdgeStyle;elbow=vertical;entryX=0.541;entryY=1.023;entryDx=0;entryDy=0;entryPerimeter=0;" parent="WIyWlLk6GJQsqaUBKTNV-1" target="HScRb9j1ugLMSFqPyH8F-11" edge="1">
          <mxGeometry width="160" relative="1" as="geometry">
            <mxPoint x="497" y="710" as="sourcePoint" />
            <mxPoint x="597" y="608" as="targetPoint" />
          </mxGeometry>
        </mxCell>
        <mxCell id="HScRb9j1ugLMSFqPyH8F-0" value="&lt;span style=&quot;font-style: italic; font-weight: 400; text-wrap: nowrap;&quot;&gt;DirUtility&lt;/span&gt;" style="swimlane;fontStyle=1;align=center;verticalAlign=top;childLayout=stackLayout;horizontal=1;startSize=26;horizontalStack=0;resizeParent=1;resizeParentMax=0;resizeLast=0;collapsible=1;marginBottom=0;whiteSpace=wrap;html=1;" parent="WIyWlLk6GJQsqaUBKTNV-1" vertex="1">
          <mxGeometry x="180" y="171" width="160" height="60" as="geometry" />
        </mxCell>
        <mxCell id="HScRb9j1ugLMSFqPyH8F-2" value="" style="line;strokeWidth=1;fillColor=none;align=left;verticalAlign=middle;spacingTop=-1;spacingLeft=3;spacingRight=3;rotatable=0;labelPosition=right;points=[];portConstraint=eastwest;strokeColor=inherit;" parent="HScRb9j1ugLMSFqPyH8F-0" vertex="1">
          <mxGeometry y="26" width="160" height="8" as="geometry" />
        </mxCell>
        <mxCell id="HScRb9j1ugLMSFqPyH8F-3" value="+ GetFiles(string): strings" style="text;strokeColor=none;fillColor=none;align=left;verticalAlign=top;spacingLeft=4;spacingRight=4;overflow=hidden;rotatable=0;points=[[0,0.5],[1,0.5]];portConstraint=eastwest;whiteSpace=wrap;html=1;" parent="HScRb9j1ugLMSFqPyH8F-0" vertex="1">
          <mxGeometry y="34" width="160" height="26" as="geometry" />
        </mxCell>
        <mxCell id="HScRb9j1ugLMSFqPyH8F-4" value="FilesParser" style="swimlane;fontStyle=1;align=center;verticalAlign=top;childLayout=stackLayout;horizontal=1;startSize=26;horizontalStack=0;resizeParent=1;resizeParentMax=0;resizeLast=0;collapsible=1;marginBottom=0;whiteSpace=wrap;html=1;" parent="WIyWlLk6GJQsqaUBKTNV-1" vertex="1">
          <mxGeometry x="120" y="521" width="178" height="86" as="geometry" />
        </mxCell>
        <mxCell id="HScRb9j1ugLMSFqPyH8F-6" value="" style="line;strokeWidth=1;fillColor=none;align=left;verticalAlign=middle;spacingTop=-1;spacingLeft=3;spacingRight=3;rotatable=0;labelPosition=right;points=[];portConstraint=eastwest;strokeColor=inherit;" parent="HScRb9j1ugLMSFqPyH8F-4" vertex="1">
          <mxGeometry y="26" width="178" height="8" as="geometry" />
        </mxCell>
        <mxCell id="HScRb9j1ugLMSFqPyH8F-45" value="+ ParseFiles(string): FileData" style="text;strokeColor=none;fillColor=none;align=left;verticalAlign=top;spacingLeft=4;spacingRight=4;overflow=hidden;rotatable=0;points=[[0,0.5],[1,0.5]];portConstraint=eastwest;whiteSpace=wrap;html=1;" parent="HScRb9j1ugLMSFqPyH8F-4" vertex="1">
          <mxGeometry y="34" width="178" height="26" as="geometry" />
        </mxCell>
        <mxCell id="HScRb9j1ugLMSFqPyH8F-7" value="+ ParseOneFile(string): Data" style="text;strokeColor=none;fillColor=none;align=left;verticalAlign=top;spacingLeft=4;spacingRight=4;overflow=hidden;rotatable=0;points=[[0,0.5],[1,0.5]];portConstraint=eastwest;whiteSpace=wrap;html=1;" parent="HScRb9j1ugLMSFqPyH8F-4" vertex="1">
          <mxGeometry y="60" width="178" height="26" as="geometry" />
        </mxCell>
        <mxCell id="HScRb9j1ugLMSFqPyH8F-8" value="IContentParser" style="swimlane;fontStyle=1;align=center;verticalAlign=top;childLayout=stackLayout;horizontal=1;startSize=26;horizontalStack=0;resizeParent=1;resizeParentMax=0;resizeLast=0;collapsible=1;marginBottom=0;whiteSpace=wrap;html=1;" parent="WIyWlLk6GJQsqaUBKTNV-1" vertex="1">
          <mxGeometry x="522" y="547" width="160" height="60" as="geometry" />
        </mxCell>
        <mxCell id="HScRb9j1ugLMSFqPyH8F-10" value="" style="line;strokeWidth=1;fillColor=none;align=left;verticalAlign=middle;spacingTop=-1;spacingLeft=3;spacingRight=3;rotatable=0;labelPosition=right;points=[];portConstraint=eastwest;strokeColor=inherit;" parent="HScRb9j1ugLMSFqPyH8F-8" vertex="1">
          <mxGeometry y="26" width="160" height="8" as="geometry" />
        </mxCell>
        <mxCell id="HScRb9j1ugLMSFqPyH8F-11" value="+ Parse(string): Data" style="text;strokeColor=none;fillColor=none;align=left;verticalAlign=top;spacingLeft=4;spacingRight=4;overflow=hidden;rotatable=0;points=[[0,0.5],[1,0.5]];portConstraint=eastwest;whiteSpace=wrap;html=1;" parent="HScRb9j1ugLMSFqPyH8F-8" vertex="1">
          <mxGeometry y="34" width="160" height="26" as="geometry" />
        </mxCell>
        <mxCell id="HScRb9j1ugLMSFqPyH8F-12" value="CsvContentParser" style="swimlane;fontStyle=1;align=center;verticalAlign=top;childLayout=stackLayout;horizontal=1;startSize=26;horizontalStack=0;resizeParent=1;resizeParentMax=0;resizeLast=0;collapsible=1;marginBottom=0;whiteSpace=wrap;html=1;" parent="WIyWlLk6GJQsqaUBKTNV-1" vertex="1">
          <mxGeometry x="417" y="707" width="160" height="86" as="geometry" />
        </mxCell>
        <mxCell id="HScRb9j1ugLMSFqPyH8F-13" value="+ field: type" style="text;strokeColor=none;fillColor=none;align=left;verticalAlign=top;spacingLeft=4;spacingRight=4;overflow=hidden;rotatable=0;points=[[0,0.5],[1,0.5]];portConstraint=eastwest;whiteSpace=wrap;html=1;" parent="HScRb9j1ugLMSFqPyH8F-12" vertex="1">
          <mxGeometry y="26" width="160" height="26" as="geometry" />
        </mxCell>
        <mxCell id="HScRb9j1ugLMSFqPyH8F-14" value="" style="line;strokeWidth=1;fillColor=none;align=left;verticalAlign=middle;spacingTop=-1;spacingLeft=3;spacingRight=3;rotatable=0;labelPosition=right;points=[];portConstraint=eastwest;strokeColor=inherit;" parent="HScRb9j1ugLMSFqPyH8F-12" vertex="1">
          <mxGeometry y="52" width="160" height="8" as="geometry" />
        </mxCell>
        <mxCell id="HScRb9j1ugLMSFqPyH8F-15" value="+ method(type): type" style="text;strokeColor=none;fillColor=none;align=left;verticalAlign=top;spacingLeft=4;spacingRight=4;overflow=hidden;rotatable=0;points=[[0,0.5],[1,0.5]];portConstraint=eastwest;whiteSpace=wrap;html=1;" parent="HScRb9j1ugLMSFqPyH8F-12" vertex="1">
          <mxGeometry y="60" width="160" height="26" as="geometry" />
        </mxCell>
        <mxCell id="HScRb9j1ugLMSFqPyH8F-16" value="JsonContentParser" style="swimlane;fontStyle=1;align=center;verticalAlign=top;childLayout=stackLayout;horizontal=1;startSize=26;horizontalStack=0;resizeParent=1;resizeParentMax=0;resizeLast=0;collapsible=1;marginBottom=0;whiteSpace=wrap;html=1;" parent="WIyWlLk6GJQsqaUBKTNV-1" vertex="1">
          <mxGeometry x="537" y="828" width="160" height="86" as="geometry" />
        </mxCell>
        <mxCell id="HScRb9j1ugLMSFqPyH8F-17" value="+ field: type" style="text;strokeColor=none;fillColor=none;align=left;verticalAlign=top;spacingLeft=4;spacingRight=4;overflow=hidden;rotatable=0;points=[[0,0.5],[1,0.5]];portConstraint=eastwest;whiteSpace=wrap;html=1;" parent="HScRb9j1ugLMSFqPyH8F-16" vertex="1">
          <mxGeometry y="26" width="160" height="26" as="geometry" />
        </mxCell>
        <mxCell id="HScRb9j1ugLMSFqPyH8F-18" value="" style="line;strokeWidth=1;fillColor=none;align=left;verticalAlign=middle;spacingTop=-1;spacingLeft=3;spacingRight=3;rotatable=0;labelPosition=right;points=[];portConstraint=eastwest;strokeColor=inherit;" parent="HScRb9j1ugLMSFqPyH8F-16" vertex="1">
          <mxGeometry y="52" width="160" height="8" as="geometry" />
        </mxCell>
        <mxCell id="HScRb9j1ugLMSFqPyH8F-19" value="+ method(type): type" style="text;strokeColor=none;fillColor=none;align=left;verticalAlign=top;spacingLeft=4;spacingRight=4;overflow=hidden;rotatable=0;points=[[0,0.5],[1,0.5]];portConstraint=eastwest;whiteSpace=wrap;html=1;" parent="HScRb9j1ugLMSFqPyH8F-16" vertex="1">
          <mxGeometry y="60" width="160" height="26" as="geometry" />
        </mxCell>
        <mxCell id="HScRb9j1ugLMSFqPyH8F-20" value="XmlContentParser" style="swimlane;fontStyle=1;align=center;verticalAlign=top;childLayout=stackLayout;horizontal=1;startSize=26;horizontalStack=0;resizeParent=1;resizeParentMax=0;resizeLast=0;collapsible=1;marginBottom=0;whiteSpace=wrap;html=1;" parent="WIyWlLk6GJQsqaUBKTNV-1" vertex="1">
          <mxGeometry x="637" y="707" width="160" height="86" as="geometry" />
        </mxCell>
        <mxCell id="HScRb9j1ugLMSFqPyH8F-21" value="+ field: type" style="text;strokeColor=none;fillColor=none;align=left;verticalAlign=top;spacingLeft=4;spacingRight=4;overflow=hidden;rotatable=0;points=[[0,0.5],[1,0.5]];portConstraint=eastwest;whiteSpace=wrap;html=1;" parent="HScRb9j1ugLMSFqPyH8F-20" vertex="1">
          <mxGeometry y="26" width="160" height="26" as="geometry" />
        </mxCell>
        <mxCell id="HScRb9j1ugLMSFqPyH8F-22" value="" style="line;strokeWidth=1;fillColor=none;align=left;verticalAlign=middle;spacingTop=-1;spacingLeft=3;spacingRight=3;rotatable=0;labelPosition=right;points=[];portConstraint=eastwest;strokeColor=inherit;" parent="HScRb9j1ugLMSFqPyH8F-20" vertex="1">
          <mxGeometry y="52" width="160" height="8" as="geometry" />
        </mxCell>
        <mxCell id="HScRb9j1ugLMSFqPyH8F-23" value="+ method(type): type" style="text;strokeColor=none;fillColor=none;align=left;verticalAlign=top;spacingLeft=4;spacingRight=4;overflow=hidden;rotatable=0;points=[[0,0.5],[1,0.5]];portConstraint=eastwest;whiteSpace=wrap;html=1;" parent="HScRb9j1ugLMSFqPyH8F-20" vertex="1">
          <mxGeometry y="60" width="160" height="26" as="geometry" />
        </mxCell>
        <mxCell id="HScRb9j1ugLMSFqPyH8F-27" value="KeySearchEngine" style="swimlane;fontStyle=1;align=center;verticalAlign=top;childLayout=stackLayout;horizontal=1;startSize=26;horizontalStack=0;resizeParent=1;resizeParentMax=0;resizeLast=0;collapsible=1;marginBottom=0;whiteSpace=wrap;html=1;" parent="WIyWlLk6GJQsqaUBKTNV-1" vertex="1">
          <mxGeometry x="40" y="397" width="230" height="60" as="geometry" />
        </mxCell>
        <mxCell id="HScRb9j1ugLMSFqPyH8F-29" value="" style="line;strokeWidth=1;fillColor=none;align=left;verticalAlign=middle;spacingTop=-1;spacingLeft=3;spacingRight=3;rotatable=0;labelPosition=right;points=[];portConstraint=eastwest;strokeColor=inherit;" parent="HScRb9j1ugLMSFqPyH8F-27" vertex="1">
          <mxGeometry y="26" width="230" height="8" as="geometry" />
        </mxCell>
        <mxCell id="HScRb9j1ugLMSFqPyH8F-30" value="+ Search(string, FileData): FileData" style="text;strokeColor=none;fillColor=none;align=left;verticalAlign=top;spacingLeft=4;spacingRight=4;overflow=hidden;rotatable=0;points=[[0,0.5],[1,0.5]];portConstraint=eastwest;whiteSpace=wrap;html=1;" parent="HScRb9j1ugLMSFqPyH8F-27" vertex="1">
          <mxGeometry y="34" width="230" height="26" as="geometry" />
        </mxCell>
        <mxCell id="HScRb9j1ugLMSFqPyH8F-32" value="FileData" style="swimlane;fontStyle=1;align=center;verticalAlign=top;childLayout=stackLayout;horizontal=1;startSize=26;horizontalStack=0;resizeParent=1;resizeParentMax=0;resizeLast=0;collapsible=1;marginBottom=0;whiteSpace=wrap;html=1;" parent="WIyWlLk6GJQsqaUBKTNV-1" vertex="1">
          <mxGeometry x="375" y="127" width="160" height="86" as="geometry" />
        </mxCell>
        <mxCell id="HScRb9j1ugLMSFqPyH8F-33" value="+ data: Data" style="text;strokeColor=none;fillColor=none;align=left;verticalAlign=top;spacingLeft=4;spacingRight=4;overflow=hidden;rotatable=0;points=[[0,0.5],[1,0.5]];portConstraint=eastwest;whiteSpace=wrap;html=1;" parent="HScRb9j1ugLMSFqPyH8F-32" vertex="1">
          <mxGeometry y="26" width="160" height="26" as="geometry" />
        </mxCell>
        <mxCell id="HScRb9j1ugLMSFqPyH8F-36" value="+ fileName: string" style="text;strokeColor=none;fillColor=none;align=left;verticalAlign=top;spacingLeft=4;spacingRight=4;overflow=hidden;rotatable=0;points=[[0,0.5],[1,0.5]];portConstraint=eastwest;whiteSpace=wrap;html=1;" parent="HScRb9j1ugLMSFqPyH8F-32" vertex="1">
          <mxGeometry y="52" width="160" height="26" as="geometry" />
        </mxCell>
        <mxCell id="HScRb9j1ugLMSFqPyH8F-34" value="" style="line;strokeWidth=1;fillColor=none;align=left;verticalAlign=middle;spacingTop=-1;spacingLeft=3;spacingRight=3;rotatable=0;labelPosition=right;points=[];portConstraint=eastwest;strokeColor=inherit;" parent="HScRb9j1ugLMSFqPyH8F-32" vertex="1">
          <mxGeometry y="78" width="160" height="8" as="geometry" />
        </mxCell>
        <mxCell id="HScRb9j1ugLMSFqPyH8F-37" value="Data" style="swimlane;fontStyle=1;align=center;verticalAlign=top;childLayout=stackLayout;horizontal=1;startSize=26;horizontalStack=0;resizeParent=1;resizeParentMax=0;resizeLast=0;collapsible=1;marginBottom=0;whiteSpace=wrap;html=1;" parent="WIyWlLk6GJQsqaUBKTNV-1" vertex="1">
          <mxGeometry x="610" y="127" width="160" height="86" as="geometry" />
        </mxCell>
        <mxCell id="HScRb9j1ugLMSFqPyH8F-38" value="+ Key: string" style="text;strokeColor=none;fillColor=none;align=left;verticalAlign=top;spacingLeft=4;spacingRight=4;overflow=hidden;rotatable=0;points=[[0,0.5],[1,0.5]];portConstraint=eastwest;whiteSpace=wrap;html=1;" parent="HScRb9j1ugLMSFqPyH8F-37" vertex="1">
          <mxGeometry y="26" width="160" height="26" as="geometry" />
        </mxCell>
        <mxCell id="HScRb9j1ugLMSFqPyH8F-41" value="+ Value: string" style="text;strokeColor=none;fillColor=none;align=left;verticalAlign=top;spacingLeft=4;spacingRight=4;overflow=hidden;rotatable=0;points=[[0,0.5],[1,0.5]];portConstraint=eastwest;whiteSpace=wrap;html=1;" parent="HScRb9j1ugLMSFqPyH8F-37" vertex="1">
          <mxGeometry y="52" width="160" height="26" as="geometry" />
        </mxCell>
        <mxCell id="HScRb9j1ugLMSFqPyH8F-39" value="" style="line;strokeWidth=1;fillColor=none;align=left;verticalAlign=middle;spacingTop=-1;spacingLeft=3;spacingRight=3;rotatable=0;labelPosition=right;points=[];portConstraint=eastwest;strokeColor=inherit;" parent="HScRb9j1ugLMSFqPyH8F-37" vertex="1">
          <mxGeometry y="78" width="160" height="8" as="geometry" />
        </mxCell>
        <mxCell id="HScRb9j1ugLMSFqPyH8F-42" value="" style="endArrow=diamondThin;endFill=0;endSize=24;html=1;rounded=0;entryX=1.013;entryY=0.038;entryDx=0;entryDy=0;entryPerimeter=0;exitX=-0.007;exitY=0.038;exitDx=0;exitDy=0;exitPerimeter=0;" parent="WIyWlLk6GJQsqaUBKTNV-1" source="HScRb9j1ugLMSFqPyH8F-41" target="HScRb9j1ugLMSFqPyH8F-36" edge="1">
          <mxGeometry width="160" relative="1" as="geometry">
            <mxPoint x="600" y="180" as="sourcePoint" />
            <mxPoint x="570" y="247" as="targetPoint" />
          </mxGeometry>
        </mxCell>
        <mxCell id="HScRb9j1ugLMSFqPyH8F-43" value="n" style="text;html=1;align=center;verticalAlign=middle;resizable=0;points=[];autosize=1;strokeColor=none;fillColor=none;" parent="WIyWlLk6GJQsqaUBKTNV-1" vertex="1">
          <mxGeometry x="580" y="155" width="30" height="30" as="geometry" />
        </mxCell>
        <mxCell id="HScRb9j1ugLMSFqPyH8F-44" value="Program&lt;div&gt;&lt;br&gt;&lt;div&gt;Display()&lt;/div&gt;&lt;div&gt;&lt;br&gt;&lt;/div&gt;&lt;div&gt;Search()&lt;/div&gt;&lt;/div&gt;" style="html=1;whiteSpace=wrap;fillColor=#FFFF66;" parent="WIyWlLk6GJQsqaUBKTNV-1" vertex="1">
          <mxGeometry x="30" y="141" width="120" height="90" as="geometry" />
        </mxCell>
        <mxCell id="HScRb9j1ugLMSFqPyH8F-46" value="" style="endArrow=block;endFill=1;html=1;edgeStyle=orthogonalEdgeStyle;align=left;verticalAlign=top;rounded=0;" parent="WIyWlLk6GJQsqaUBKTNV-1" target="HScRb9j1ugLMSFqPyH8F-7" edge="1">
          <mxGeometry x="-1" relative="1" as="geometry">
            <mxPoint x="32" y="198.03" as="sourcePoint" />
            <mxPoint x="120" y="607" as="targetPoint" />
            <Array as="points">
              <mxPoint x="10" y="198" />
              <mxPoint x="10" y="600" />
            </Array>
          </mxGeometry>
        </mxCell>
        <mxCell id="HScRb9j1ugLMSFqPyH8F-48" value="" style="endArrow=block;endFill=1;html=1;edgeStyle=orthogonalEdgeStyle;align=left;verticalAlign=top;rounded=0;exitX=0.998;exitY=0.946;exitDx=0;exitDy=0;exitPerimeter=0;entryX=0.063;entryY=0.615;entryDx=0;entryDy=0;entryPerimeter=0;" parent="WIyWlLk6GJQsqaUBKTNV-1" edge="1">
          <mxGeometry x="-1" relative="1" as="geometry">
            <mxPoint x="297.644" y="606.596" as="sourcePoint" />
            <mxPoint x="470.06899999999996" y="465.99" as="targetPoint" />
            <Array as="points">
              <mxPoint x="298" y="597" />
              <mxPoint x="470" y="597" />
            </Array>
          </mxGeometry>
        </mxCell>
        <mxCell id="QsmUmIBsizK8Ogi8Yjii-1" value="ISearchEngine" style="swimlane;fontStyle=1;align=center;verticalAlign=top;childLayout=stackLayout;horizontal=1;startSize=26;horizontalStack=0;resizeParent=1;resizeParentMax=0;resizeLast=0;collapsible=1;marginBottom=0;whiteSpace=wrap;html=1;" parent="WIyWlLk6GJQsqaUBKTNV-1" vertex="1">
          <mxGeometry x="100" y="267" width="200" height="60" as="geometry" />
        </mxCell>
        <mxCell id="QsmUmIBsizK8Ogi8Yjii-3" value="" style="line;strokeWidth=1;fillColor=none;align=left;verticalAlign=middle;spacingTop=-1;spacingLeft=3;spacingRight=3;rotatable=0;labelPosition=right;points=[];portConstraint=eastwest;strokeColor=inherit;" parent="QsmUmIBsizK8Ogi8Yjii-1" vertex="1">
          <mxGeometry y="26" width="200" height="8" as="geometry" />
        </mxCell>
        <mxCell id="QsmUmIBsizK8Ogi8Yjii-4" value="+ Search(string, FileData): FileData" style="text;strokeColor=none;fillColor=none;align=left;verticalAlign=top;spacingLeft=4;spacingRight=4;overflow=hidden;rotatable=0;points=[[0,0.5],[1,0.5]];portConstraint=eastwest;whiteSpace=wrap;html=1;" parent="QsmUmIBsizK8Ogi8Yjii-1" vertex="1">
          <mxGeometry y="34" width="200" height="26" as="geometry" />
        </mxCell>
        <mxCell id="QsmUmIBsizK8Ogi8Yjii-5" value="IDirUtility" style="swimlane;fontStyle=1;align=center;verticalAlign=top;childLayout=stackLayout;horizontal=1;startSize=26;horizontalStack=0;resizeParent=1;resizeParentMax=0;resizeLast=0;collapsible=1;marginBottom=0;whiteSpace=wrap;html=1;" parent="WIyWlLk6GJQsqaUBKTNV-1" vertex="1">
          <mxGeometry x="170" y="57" width="160" height="60" as="geometry" />
        </mxCell>
        <mxCell id="QsmUmIBsizK8Ogi8Yjii-7" value="" style="line;strokeWidth=1;fillColor=none;align=left;verticalAlign=middle;spacingTop=-1;spacingLeft=3;spacingRight=3;rotatable=0;labelPosition=right;points=[];portConstraint=eastwest;strokeColor=inherit;" parent="QsmUmIBsizK8Ogi8Yjii-5" vertex="1">
          <mxGeometry y="26" width="160" height="8" as="geometry" />
        </mxCell>
        <mxCell id="QsmUmIBsizK8Ogi8Yjii-8" value="+ GetFiles(string): strings" style="text;strokeColor=none;fillColor=none;align=left;verticalAlign=top;spacingLeft=4;spacingRight=4;overflow=hidden;rotatable=0;points=[[0,0.5],[1,0.5]];portConstraint=eastwest;whiteSpace=wrap;html=1;" parent="QsmUmIBsizK8Ogi8Yjii-5" vertex="1">
          <mxGeometry y="34" width="160" height="26" as="geometry" />
        </mxCell>
        <mxCell id="QsmUmIBsizK8Ogi8Yjii-9" value="" style="endArrow=block;endSize=10;endFill=0;shadow=0;strokeWidth=1;rounded=0;curved=0;edgeStyle=elbowEdgeStyle;elbow=vertical;exitX=0.406;exitY=0.1;exitDx=0;exitDy=0;exitPerimeter=0;" parent="WIyWlLk6GJQsqaUBKTNV-1" source="HScRb9j1ugLMSFqPyH8F-0" edge="1">
          <mxGeometry width="160" relative="1" as="geometry">
            <mxPoint x="255" y="171" as="sourcePoint" />
            <mxPoint x="245" y="117" as="targetPoint" />
            <Array as="points" />
          </mxGeometry>
        </mxCell>
        <mxCell id="QsmUmIBsizK8Ogi8Yjii-10" value="" style="endArrow=block;endSize=10;endFill=0;shadow=0;strokeWidth=1;rounded=0;curved=0;edgeStyle=elbowEdgeStyle;elbow=vertical;exitX=0.696;exitY=-0.003;exitDx=0;exitDy=0;exitPerimeter=0;" parent="WIyWlLk6GJQsqaUBKTNV-1" source="HScRb9j1ugLMSFqPyH8F-27" edge="1">
          <mxGeometry width="160" relative="1" as="geometry">
            <mxPoint x="200" y="387" as="sourcePoint" />
            <mxPoint x="200" y="327" as="targetPoint" />
            <Array as="points" />
          </mxGeometry>
        </mxCell>
        <mxCell id="QsmUmIBsizK8Ogi8Yjii-11" value="" style="endArrow=block;endFill=1;html=1;edgeStyle=orthogonalEdgeStyle;align=left;verticalAlign=top;rounded=0;entryX=0.174;entryY=-0.03;entryDx=0;entryDy=0;entryPerimeter=0;exitX=0.41;exitY=0.993;exitDx=0;exitDy=0;exitPerimeter=0;" parent="WIyWlLk6GJQsqaUBKTNV-1" source="HScRb9j1ugLMSFqPyH8F-44" target="HScRb9j1ugLMSFqPyH8F-27" edge="1">
          <mxGeometry x="-1" relative="1" as="geometry">
            <mxPoint x="80" y="247" as="sourcePoint" />
            <mxPoint x="80" y="387" as="targetPoint" />
          </mxGeometry>
        </mxCell>
        <mxCell id="QsmUmIBsizK8Ogi8Yjii-15" value="IFileParser" style="swimlane;fontStyle=1;align=center;verticalAlign=top;childLayout=stackLayout;horizontal=1;startSize=26;horizontalStack=0;resizeParent=1;resizeParentMax=0;resizeLast=0;collapsible=1;marginBottom=0;whiteSpace=wrap;html=1;" parent="WIyWlLk6GJQsqaUBKTNV-1" vertex="1">
          <mxGeometry x="110" y="697" width="241" height="86" as="geometry" />
        </mxCell>
        <mxCell id="QsmUmIBsizK8Ogi8Yjii-17" value="" style="line;strokeWidth=1;fillColor=none;align=left;verticalAlign=middle;spacingTop=-1;spacingLeft=3;spacingRight=3;rotatable=0;labelPosition=right;points=[];portConstraint=eastwest;strokeColor=inherit;" parent="QsmUmIBsizK8Ogi8Yjii-15" vertex="1">
          <mxGeometry y="26" width="241" height="8" as="geometry" />
        </mxCell>
        <mxCell id="QsmUmIBsizK8Ogi8Yjii-19" value="+ ParseOneFile(string): Data" style="text;strokeColor=none;fillColor=none;align=left;verticalAlign=top;spacingLeft=4;spacingRight=4;overflow=hidden;rotatable=0;points=[[0,0.5],[1,0.5]];portConstraint=eastwest;whiteSpace=wrap;html=1;" parent="QsmUmIBsizK8Ogi8Yjii-15" vertex="1">
          <mxGeometry y="34" width="241" height="26" as="geometry" />
        </mxCell>
        <mxCell id="QsmUmIBsizK8Ogi8Yjii-18" value="+ ParseFiles(string): FileData" style="text;strokeColor=none;fillColor=none;align=left;verticalAlign=top;spacingLeft=4;spacingRight=4;overflow=hidden;rotatable=0;points=[[0,0.5],[1,0.5]];portConstraint=eastwest;whiteSpace=wrap;html=1;" parent="QsmUmIBsizK8Ogi8Yjii-15" vertex="1">
          <mxGeometry y="60" width="241" height="26" as="geometry" />
        </mxCell>
        <mxCell id="QsmUmIBsizK8Ogi8Yjii-20" value="" style="endArrow=block;endSize=10;endFill=0;shadow=0;strokeWidth=1;rounded=0;curved=0;edgeStyle=elbowEdgeStyle;elbow=vertical;" parent="WIyWlLk6GJQsqaUBKTNV-1" target="QsmUmIBsizK8Ogi8Yjii-15" edge="1">
          <mxGeometry width="160" relative="1" as="geometry">
            <mxPoint x="231" y="607" as="sourcePoint" />
            <mxPoint x="210" y="337" as="targetPoint" />
            <Array as="points" />
          </mxGeometry>
        </mxCell>
        <mxCell id="QsmUmIBsizK8Ogi8Yjii-24" value="" style="endArrow=none;html=1;rounded=0;" parent="WIyWlLk6GJQsqaUBKTNV-1" edge="1">
          <mxGeometry width="50" height="50" relative="1" as="geometry">
            <mxPoint x="609" y="828" as="sourcePoint" />
            <mxPoint x="609" y="658" as="targetPoint" />
          </mxGeometry>
        </mxCell>
        <mxCell id="QsmUmIBsizK8Ogi8Yjii-25" value="" style="endArrow=none;html=1;rounded=0;exitX=0.5;exitY=0;exitDx=0;exitDy=0;" parent="WIyWlLk6GJQsqaUBKTNV-1" edge="1">
          <mxGeometry width="50" height="50" relative="1" as="geometry">
            <mxPoint x="717" y="703" as="sourcePoint" />
            <mxPoint x="607" y="659" as="targetPoint" />
            <Array as="points">
              <mxPoint x="717" y="659" />
            </Array>
          </mxGeometry>
        </mxCell>
        <mxCell id="QsmUmIBsizK8Ogi8Yjii-26" value="" style="endArrow=block;endFill=1;html=1;edgeStyle=orthogonalEdgeStyle;align=left;verticalAlign=top;rounded=0;entryX=0.933;entryY=1.075;entryDx=0;entryDy=0;entryPerimeter=0;exitX=1;exitY=0.5;exitDx=0;exitDy=0;" parent="WIyWlLk6GJQsqaUBKTNV-1" source="HScRb9j1ugLMSFqPyH8F-11" target="HScRb9j1ugLMSFqPyH8F-39" edge="1">
          <mxGeometry x="-1" relative="1" as="geometry">
            <mxPoint x="760" y="357" as="sourcePoint" />
            <mxPoint x="440" y="377" as="targetPoint" />
          </mxGeometry>
        </mxCell>
        <mxCell id="QsmUmIBsizK8Ogi8Yjii-28" value="" style="endArrow=block;endFill=1;html=1;edgeStyle=orthogonalEdgeStyle;align=left;verticalAlign=top;rounded=0;entryX=0.196;entryY=1.075;entryDx=0;entryDy=0;entryPerimeter=0;exitX=1;exitY=0.5;exitDx=0;exitDy=0;" parent="WIyWlLk6GJQsqaUBKTNV-1" source="HScRb9j1ugLMSFqPyH8F-45" edge="1">
          <mxGeometry x="-1" relative="1" as="geometry">
            <mxPoint x="280" y="567.4" as="sourcePoint" />
            <mxPoint x="388.3599999999999" y="213.00000000000003" as="targetPoint" />
          </mxGeometry>
        </mxCell>
        <mxCell id="QsmUmIBsizK8Ogi8Yjii-31" value="" style="endArrow=block;endFill=1;html=1;edgeStyle=orthogonalEdgeStyle;align=left;verticalAlign=top;rounded=0;exitX=1;exitY=0.5;exitDx=0;exitDy=0;" parent="WIyWlLk6GJQsqaUBKTNV-1" source="HScRb9j1ugLMSFqPyH8F-30" edge="1">
          <mxGeometry x="-1" relative="1" as="geometry">
            <mxPoint x="268" y="432" as="sourcePoint" />
            <mxPoint x="388" y="212" as="targetPoint" />
          </mxGeometry>
        </mxCell>
        <mxCell id="QsmUmIBsizK8Ogi8Yjii-33" value="" style="endArrow=block;endFill=1;html=1;edgeStyle=orthogonalEdgeStyle;align=left;verticalAlign=top;rounded=0;" parent="WIyWlLk6GJQsqaUBKTNV-1" edge="1">
          <mxGeometry x="-1" relative="1" as="geometry">
            <mxPoint x="120" y="217" as="sourcePoint" />
            <mxPoint x="180" y="217" as="targetPoint" />
          </mxGeometry>
        </mxCell>
        <mxCell id="gPPG3SwTXzzt9oixgCUh-0" value="ParserFactory" style="swimlane;fontStyle=1;align=center;verticalAlign=top;childLayout=stackLayout;horizontal=1;startSize=26;horizontalStack=0;resizeParent=1;resizeParentMax=0;resizeLast=0;collapsible=1;marginBottom=0;whiteSpace=wrap;html=1;" vertex="1" parent="WIyWlLk6GJQsqaUBKTNV-1">
          <mxGeometry x="453.5" y="407" width="263" height="60" as="geometry" />
        </mxCell>
        <mxCell id="gPPG3SwTXzzt9oixgCUh-2" value="" style="line;strokeWidth=1;fillColor=none;align=left;verticalAlign=middle;spacingTop=-1;spacingLeft=3;spacingRight=3;rotatable=0;labelPosition=right;points=[];portConstraint=eastwest;strokeColor=inherit;" vertex="1" parent="gPPG3SwTXzzt9oixgCUh-0">
          <mxGeometry y="26" width="263" height="8" as="geometry" />
        </mxCell>
        <mxCell id="gPPG3SwTXzzt9oixgCUh-3" value="+ GetContentParser(string): IContentParser" style="text;strokeColor=none;fillColor=none;align=left;verticalAlign=top;spacingLeft=4;spacingRight=4;overflow=hidden;rotatable=0;points=[[0,0.5],[1,0.5]];portConstraint=eastwest;whiteSpace=wrap;html=1;" vertex="1" parent="gPPG3SwTXzzt9oixgCUh-0">
          <mxGeometry y="34" width="263" height="26" as="geometry" />
        </mxCell>
        <mxCell id="gPPG3SwTXzzt9oixgCUh-4" value="IParserFactory" style="swimlane;fontStyle=1;align=center;verticalAlign=top;childLayout=stackLayout;horizontal=1;startSize=26;horizontalStack=0;resizeParent=1;resizeParentMax=0;resizeLast=0;collapsible=1;marginBottom=0;whiteSpace=wrap;html=1;" vertex="1" parent="WIyWlLk6GJQsqaUBKTNV-1">
          <mxGeometry x="453.5" y="297" width="270" height="60" as="geometry" />
        </mxCell>
        <mxCell id="gPPG3SwTXzzt9oixgCUh-6" value="" style="line;strokeWidth=1;fillColor=none;align=left;verticalAlign=middle;spacingTop=-1;spacingLeft=3;spacingRight=3;rotatable=0;labelPosition=right;points=[];portConstraint=eastwest;strokeColor=inherit;" vertex="1" parent="gPPG3SwTXzzt9oixgCUh-4">
          <mxGeometry y="26" width="270" height="8" as="geometry" />
        </mxCell>
        <mxCell id="gPPG3SwTXzzt9oixgCUh-7" value="+ GetContentParser(string): IContentParser" style="text;strokeColor=none;fillColor=none;align=left;verticalAlign=top;spacingLeft=4;spacingRight=4;overflow=hidden;rotatable=0;points=[[0,0.5],[1,0.5]];portConstraint=eastwest;whiteSpace=wrap;html=1;" vertex="1" parent="gPPG3SwTXzzt9oixgCUh-4">
          <mxGeometry y="34" width="270" height="26" as="geometry" />
        </mxCell>
        <mxCell id="gPPG3SwTXzzt9oixgCUh-8" value="" style="endArrow=block;endSize=10;endFill=0;shadow=0;strokeWidth=1;rounded=0;curved=0;edgeStyle=elbowEdgeStyle;elbow=vertical;" edge="1" parent="WIyWlLk6GJQsqaUBKTNV-1">
          <mxGeometry width="160" relative="1" as="geometry">
            <mxPoint x="577" y="407" as="sourcePoint" />
            <mxPoint x="577" y="357" as="targetPoint" />
            <Array as="points" />
          </mxGeometry>
        </mxCell>
        <mxCell id="gPPG3SwTXzzt9oixgCUh-9" value="" style="endArrow=block;endFill=1;html=1;edgeStyle=orthogonalEdgeStyle;align=left;verticalAlign=top;rounded=0;exitX=1;exitY=0.5;exitDx=0;exitDy=0;entryX=1;entryY=0.5;entryDx=0;entryDy=0;" edge="1" parent="WIyWlLk6GJQsqaUBKTNV-1" source="gPPG3SwTXzzt9oixgCUh-3" target="HScRb9j1ugLMSFqPyH8F-8">
          <mxGeometry x="-1" relative="1" as="geometry">
            <mxPoint x="522" y="507" as="sourcePoint" />
            <mxPoint x="682" y="507" as="targetPoint" />
          </mxGeometry>
        </mxCell>
      </root>
    </mxGraphModel>
  </diagram>
</mxfile>
